<svg width="21" height="23" viewBox="0 0 21 23" fill="none" xmlns="http://www.w3.org/2000/svg">
<path d="M20.6682 6.59295C20.4005 6.01006 19.9662 5.52275 19.4222 5.19457L12.4722 0.824634C11.9624 0.503427 11.3747 0.333252 10.775 0.333252C10.1753 0.333252 9.58755 0.503427 9.07778 0.824634L2.12782 5.19457C1.60098 5.53583 1.183 6.02545 0.92474 6.60388C0.656463 7.1823 0.566589 7.82975 0.666936 8.4611L2.47156 19.3859C2.58728 20.1478 2.96855 20.8419 3.54574 21.3415C4.11836 21.8293 4.83979 22.0996 5.58669 22.1062H15.9203C16.682 22.1098 17.4203 21.8389 18.0042 21.3415C18.5845 20.8444 18.9664 20.1491 19.0784 19.3859L20.8831 8.4611C20.9924 7.83041 20.9178 7.18095 20.6682 6.59295ZM14.3735 17.1901H7.18722C6.90233 17.1901 6.62911 17.075 6.42766 16.8701C6.22621 16.6652 6.11304 16.3873 6.11304 16.0976C6.11304 15.8078 6.22621 15.5299 6.42766 15.3251C6.62911 15.1202 6.90233 15.0051 7.18722 15.0051H14.3735C14.6584 15.0051 14.9316 15.1202 15.1331 15.3251C15.3345 15.5299 15.4477 15.8078 15.4477 16.0976C15.4477 16.3873 15.3345 16.6652 15.1331 16.8701C14.9316 17.075 14.6584 17.1901 14.3735 17.1901Z" fill="white"/>
</svg>
