<svg width="26" height="26" viewBox="0 0 26 26" fill="none" xmlns="http://www.w3.org/2000/svg">
<path d="M22.6682 8.59295C22.4005 8.01006 21.9662 7.52275 21.4222 7.19457L14.4722 2.82463C13.9624 2.50343 13.3747 2.33325 12.775 2.33325C12.1753 2.33325 11.5875 2.50343 11.0778 2.82463L4.12782 7.19457C3.60098 7.53583 3.183 8.02545 2.92474 8.60388C2.65646 9.1823 2.56659 9.82975 2.66694 10.4611L4.47156 21.3859C4.58728 22.1478 4.96855 22.8419 5.54574 23.3415C6.11836 23.8293 6.83979 24.0996 7.58669 24.1062H17.9203C18.682 24.1098 19.4203 23.8389 20.0042 23.3415C20.5845 22.8444 20.9664 22.1491 21.0784 21.3859L22.8831 10.4611C22.9924 9.83041 22.9178 9.18095 22.6682 8.59295ZM16.3735 19.1901H9.18722C8.90233 19.1901 8.62911 19.075 8.42766 18.8701C8.22621 18.6652 8.11304 18.3873 8.11304 18.0976C8.11304 17.8078 8.22621 17.5299 8.42766 17.3251C8.62911 17.1202 8.90233 17.0051 9.18722 17.0051H16.3735C16.6584 17.0051 16.9316 17.1202 17.1331 17.3251C17.3345 17.5299 17.4477 17.8078 17.4477 18.0976C17.4477 18.3873 17.3345 18.6652 17.1331 18.8701C16.9316 19.075 16.6584 19.1901 16.3735 19.1901Z" fill="#5E6287"/>
</svg>
